<?xml version="1.0" encoding="UTF-8" standalone="no"?>
<!DOCTYPE svg PUBLIC "-//W3C//DTD SVG 1.1//EN"
 "http://www.w3.org/Graphics/SVG/1.1/DTD/svg11.dtd">
<!-- Generated by graphviz version 2.40.1 (20161225.0304)
 -->
<!-- Title: G Pages: 1 -->
<svg width="167pt" height="435pt"
 viewBox="0.00 0.00 167.21 435.00" xmlns="http://www.w3.org/2000/svg" xmlns:xlink="http://www.w3.org/1999/xlink">
<g id="graph0" class="graph" transform="scale(1 1) rotate(0) translate(4 431)">
<title>G</title>
<polygon fill="#ffffff" stroke="transparent" points="-4,4 -4,-431 163.2129,-431 163.2129,4 -4,4"/>
<g id="clust1" class="cluster">
<title>cluster_Global</title>
<path fill="none" stroke="#c0c0c0" d="M18,-8C18,-8 140.2129,-8 140.2129,-8 146.2129,-8 152.2129,-14 152.2129,-20 152.2129,-20 152.2129,-407 152.2129,-407 152.2129,-413 146.2129,-419 140.2129,-419 140.2129,-419 18,-419 18,-419 12,-419 6,-413 6,-407 6,-407 6,-20 6,-20 6,-14 12,-8 18,-8"/>
<text text-anchor="middle" x="79.1064" y="-406.2" font-family="Times,serif" font-size="11.00" fill="#c0c0c0">Global</text>
</g>
<g id="clust2" class="cluster">
<title>cluster_\Genies</title>
<path fill="none" stroke="#c0c0c0" d="M26,-16C26,-16 132.2129,-16 132.2129,-16 138.2129,-16 144.2129,-22 144.2129,-28 144.2129,-28 144.2129,-380 144.2129,-380 144.2129,-386 138.2129,-392 132.2129,-392 132.2129,-392 26,-392 26,-392 20,-392 14,-386 14,-380 14,-380 14,-28 14,-28 14,-22 20,-16 26,-16"/>
<text text-anchor="middle" x="79.1064" y="-379.2" font-family="Times,serif" font-size="11.00" fill="#c0c0c0">Genies</text>
</g>
<g id="clust3" class="cluster">
<title>cluster_\Genies\MessengerFramework</title>
<path fill="none" stroke="#c0c0c0" d="M34,-24C34,-24 124.2129,-24 124.2129,-24 130.2129,-24 136.2129,-30 136.2129,-36 136.2129,-36 136.2129,-353 136.2129,-353 136.2129,-359 130.2129,-365 124.2129,-365 124.2129,-365 34,-365 34,-365 28,-365 22,-359 22,-353 22,-353 22,-36 22,-36 22,-30 28,-24 34,-24"/>
<text text-anchor="middle" x="79.1064" y="-352.2" font-family="Times,serif" font-size="11.00" fill="#c0c0c0">MessengerFramework</text>
</g>
<!-- \\Genies\\MessengerFramework\\Event -->
<g id="node1" class="node">
<title>\\Genies\\MessengerFramework\\Event</title>
<polygon fill="none" stroke="#000000" points="106.6064,-338 52.6064,-338 52.6064,-302 106.6064,-302 106.6064,-338"/>
<text text-anchor="middle" x="79.6064" y="-316.7" font-family="Courier,monospace" font-size="11.00" fill="#000000">Event</text>
</g>
<!-- \\Genies\\MessengerFramework\\LineBot -->
<g id="node2" class="node">
<title>\\Genies\\MessengerFramework\\LineBot</title>
<polygon fill="none" stroke="#000000" points="110.8143,-284 48.3986,-284 48.3986,-248 110.8143,-248 110.8143,-284"/>
<text text-anchor="middle" x="79.6064" y="-262.7" font-family="Courier,monospace" font-size="11.00" fill="#000000">LineBot</text>
</g>
<!-- \\Genies\\MessengerFramework\\Curl -->
<g id="node3" class="node">
<title>\\Genies\\MessengerFramework\\Curl</title>
<polygon fill="none" stroke="#000000" points="106.6064,-230 52.6064,-230 52.6064,-194 106.6064,-194 106.6064,-230"/>
<text text-anchor="middle" x="79.6064" y="-208.7" font-family="Courier,monospace" font-size="11.00" fill="#000000">Curl</text>
</g>
<!-- \\Genies\\MessengerFramework\\FacebookBot -->
<g id="node4" class="node">
<title>\\Genies\\MessengerFramework\\FacebookBot</title>
<polygon fill="none" stroke="#000000" points="123.7191,-176 35.4938,-176 35.4938,-140 123.7191,-140 123.7191,-176"/>
<text text-anchor="middle" x="79.6064" y="-154.7" font-family="Courier,monospace" font-size="11.00" fill="#000000">FacebookBot</text>
</g>
<!-- \\Genies\\MessengerFramework\\Config -->
<g id="node5" class="node">
<title>\\Genies\\MessengerFramework\\Config</title>
<polygon fill="none" stroke="#000000" points="107.2143,-122 51.9986,-122 51.9986,-86 107.2143,-86 107.2143,-122"/>
<text text-anchor="middle" x="79.6064" y="-100.7" font-family="Courier,monospace" font-size="11.00" fill="#000000">Config</text>
</g>
<!-- \\Genies\\MessengerFramework\\MessengerBot -->
<g id="node6" class="node">
<title>\\Genies\\MessengerFramework\\MessengerBot</title>
<polygon fill="none" stroke="#000000" points="127.3196,-68 31.8933,-68 31.8933,-32 127.3196,-32 127.3196,-68"/>
<text text-anchor="middle" x="79.6064" y="-46.7" font-family="Courier,monospace" font-size="11.00" fill="#000000">MessengerBot</text>
</g>
</g>
</svg>
