<?xml version="1.0" encoding="UTF-8" standalone="no"?>
<!DOCTYPE svg PUBLIC "-//W3C//DTD SVG 1.1//EN"
 "http://www.w3.org/Graphics/SVG/1.1/DTD/svg11.dtd">
<!-- Generated by graphviz version 2.40.1 (20161225.0304)
 -->
<!-- Title: G Pages: 1 -->
<svg width="151pt" height="400pt"
 viewBox="0.00 0.00 151.21 400.00" xmlns="http://www.w3.org/2000/svg" xmlns:xlink="http://www.w3.org/1999/xlink">
<g id="graph0" class="graph" transform="scale(1 1) rotate(0) translate(4 396)">
<title>G</title>
<polygon fill="#ffffff" stroke="transparent" points="-4,4 -4,-396 147.2129,-396 147.2129,4 -4,4"/>
<g id="clust1" class="cluster">
<title>cluster_Global</title>
<path fill="none" stroke="#c0c0c0" d="M18,-8C18,-8 124.2129,-8 124.2129,-8 130.2129,-8 136.2129,-14 136.2129,-20 136.2129,-20 136.2129,-372 136.2129,-372 136.2129,-378 130.2129,-384 124.2129,-384 124.2129,-384 18,-384 18,-384 12,-384 6,-378 6,-372 6,-372 6,-20 6,-20 6,-14 12,-8 18,-8"/>
<text text-anchor="middle" x="71.1064" y="-371.2" font-family="Times,serif" font-size="11.00" fill="#c0c0c0">Global</text>
</g>
<g id="clust2" class="cluster">
<title>cluster_\MessengerFramework</title>
<path fill="none" stroke="#c0c0c0" d="M26,-16C26,-16 116.2129,-16 116.2129,-16 122.2129,-16 128.2129,-22 128.2129,-28 128.2129,-28 128.2129,-345 128.2129,-345 128.2129,-351 122.2129,-357 116.2129,-357 116.2129,-357 26,-357 26,-357 20,-357 14,-351 14,-345 14,-345 14,-28 14,-28 14,-22 20,-16 26,-16"/>
<text text-anchor="middle" x="71.1064" y="-344.2" font-family="Times,serif" font-size="11.00" fill="#c0c0c0">MessengerFramework</text>
</g>
<!-- \\MessengerFramework\\Config -->
<g id="node1" class="node">
<title>\\MessengerFramework\\Config</title>
<polygon fill="none" stroke="#000000" points="99.2143,-330 43.9986,-330 43.9986,-294 99.2143,-294 99.2143,-330"/>
<text text-anchor="middle" x="71.6064" y="-308.7" font-family="Courier,monospace" font-size="11.00" fill="#000000">Config</text>
</g>
<!-- \\MessengerFramework\\Curl -->
<g id="node2" class="node">
<title>\\MessengerFramework\\Curl</title>
<polygon fill="none" stroke="#000000" points="98.6064,-276 44.6064,-276 44.6064,-240 98.6064,-240 98.6064,-276"/>
<text text-anchor="middle" x="71.6064" y="-254.7" font-family="Courier,monospace" font-size="11.00" fill="#000000">Curl</text>
</g>
<!-- \\MessengerFramework\\Event -->
<g id="node3" class="node">
<title>\\MessengerFramework\\Event</title>
<polygon fill="none" stroke="#000000" points="98.6064,-222 44.6064,-222 44.6064,-186 98.6064,-186 98.6064,-222"/>
<text text-anchor="middle" x="71.6064" y="-200.7" font-family="Courier,monospace" font-size="11.00" fill="#000000">Event</text>
</g>
<!-- \\MessengerFramework\\FacebookBot -->
<g id="node4" class="node">
<title>\\MessengerFramework\\FacebookBot</title>
<polygon fill="none" stroke="#000000" points="115.7191,-168 27.4938,-168 27.4938,-132 115.7191,-132 115.7191,-168"/>
<text text-anchor="middle" x="71.6064" y="-146.7" font-family="Courier,monospace" font-size="11.00" fill="#000000">FacebookBot</text>
</g>
<!-- \\MessengerFramework\\LineBot -->
<g id="node5" class="node">
<title>\\MessengerFramework\\LineBot</title>
<polygon fill="none" stroke="#000000" points="102.8143,-114 40.3986,-114 40.3986,-78 102.8143,-78 102.8143,-114"/>
<text text-anchor="middle" x="71.6064" y="-92.7" font-family="Courier,monospace" font-size="11.00" fill="#000000">LineBot</text>
</g>
<!-- \\MessengerFramework\\MessengerBot -->
<g id="node6" class="node">
<title>\\MessengerFramework\\MessengerBot</title>
<polygon fill="none" stroke="#000000" points="119.3196,-60 23.8933,-60 23.8933,-24 119.3196,-24 119.3196,-60"/>
<text text-anchor="middle" x="71.6064" y="-38.7" font-family="Courier,monospace" font-size="11.00" fill="#000000">MessengerBot</text>
</g>
</g>
</svg>
